# xmcd
#
# Track frame offsets:
#	182
#	17877
#	38277
#	57282
#	79177
#	97467
#	118745
#	139315
#	156230
#	174290
#
# Disc length: 2555 seconds
#
# Revision: 1
# Processed by: cddbd v1.4b42PL1 Copyright (c) Steve Scherf et al.
# Submitted via: audiograbber 1.80
#
DISCID=8209f90a
DTITLE=Paul Cotton - Changing Horses
DYEAR=1900
DGENRE=
TTITLE0=I Can Hear Your Heartbeat
TTITLE1=I Walk The River
TTITLE2=Tiger On The Lawn
TTITLE3=Here In Paradise
TTITLE4=One Long Last Look
TTITLE5=Heart Of The Night
TTITLE6=After All These Years
TTITLE7=Jamaican Rain
TTITLE8=High Water
TTITLE9=From Across The Room
EXTD=
EXTT0=
EXTT1=
EXTT2=
EXTT3=
EXTT4=
EXTT5=
EXTT6=
EXTT7=
EXTT8=
EXTT9=
PLAYORDER=
